<svg xmlns="http://www.w3.org/2000/svg" version="1.1">
    <defs>
        <g id="star">
            <path d="M5.40942 26.7109C5.92993 27.1172 6.59009 26.9775 7.3772 26.4062L14.093 21.4678L20.8215 26.4062C21.6086 26.9775 22.2561 27.1172 22.7893 26.7109C23.3098 26.3174 23.4241 25.6699 23.1067 24.7432L20.4534 16.8467L27.2327 11.9717C28.0198 11.4131 28.3372 10.8291 28.134 10.1943C27.9309 9.58496 27.3342 9.28027 26.3567 9.29297L18.0413 9.34375L15.5149 1.40918C15.2102 0.469727 14.7532 0 14.093 0C13.4456 0 12.9885 0.469727 12.6838 1.40918L10.1575 9.34375L1.84204 9.29297C0.864501 9.28027 0.267822 9.58496 0.0646968 10.1943C-0.151124 10.8291 0.178955 11.4131 0.966064 11.9717L7.74536 16.8467L5.09204 24.7432C4.77466 25.6699 4.88892 26.3174 5.40942 26.7109Z"
                  fill="#FFD600"/>
        </g>

        <g id="timer">
            <path d="M9 2H15C15.2652 2 15.5196 1.89464 15.7071 1.70711C15.8946 1.51957 16 1.26522 16 1C16 0.734784 15.8946 0.48043 15.7071 0.292893C15.5196 0.105357 15.2652 0 15 0L9 0C8.73478 0 8.48043 0.105357 8.29289 0.292893C8.10536 0.48043 8 0.734784 8 1C8 1.26522 8.10536 1.51957 8.29289 1.70711C8.48043 1.89464 8.73478 2 9 2Z"
                  fill="#39D7D7"/>
            <path d="M12 4C9.62663 4 7.30655 4.70379 5.33316 6.02236C3.35977 7.34094 1.8217 9.21509 0.913451 11.4078C0.00519943 13.6005 -0.232441 16.0133 0.230582 18.3411C0.693605 20.6689 1.83649 22.8071 3.51472 24.4853C5.19295 26.1635 7.33115 27.3064 9.65892 27.7694C11.9867 28.2324 14.3995 27.9948 16.5922 27.0866C18.7849 26.1783 20.6591 24.6402 21.9776 22.6668C23.2962 20.6935 24 18.3734 24 16C23.9964 12.8185 22.731 9.76835 20.4813 7.51869C18.2317 5.26903 15.1815 4.0036 12 4ZM17.6569 11.7573L12.7072 16.7071C12.6143 16.8 12.5041 16.8736 12.3827 16.9239C12.2614 16.9741 12.1314 17 12 17C11.8687 17 11.7387 16.9742 11.6174 16.9239C11.496 16.8737 11.3858 16.8 11.2929 16.7072C11.2 16.6143 11.1264 16.5041 11.0761 16.3827C11.0259 16.2614 11 16.1314 11 16C11 15.8687 11.0258 15.7387 11.0761 15.6173C11.1263 15.496 11.2 15.3858 11.2929 15.2929L16.2426 10.3431C16.3355 10.2503 16.4457 10.1766 16.567 10.1264C16.6884 10.0761 16.8184 10.0502 16.9497 10.0502C17.081 10.0502 17.2111 10.0761 17.3324 10.1263C17.4537 10.1766 17.564 10.2503 17.6568 10.3431C17.7497 10.436 17.8234 10.5462 17.8736 10.6675C17.9239 10.7889 17.9497 10.9189 17.9497 11.0502C17.9498 11.1815 17.9239 11.3116 17.8736 11.4329C17.8234 11.5542 17.7497 11.6645 17.6569 11.7573H17.6569Z"
                  fill="#39D7D7"/>
        </g>


        <g id="player-arrow-next">
            <path d="M27.5603 24.6721C29.7874 25.9611 29.7874 29.1839 27.5603 30.4729L5.01096 43.5249C2.78386 44.814 -4.50781e-07 43.2026 0 40.6245L7.17542e-06 14.5205C7.96429e-06 11.9423 2.78387 10.331 5.01097 11.6201L27.5603 24.6721Z"
                  fill="white"/>
            <path d="M51.3254 24.6721C53.5582 25.9612 53.5582 29.1839 51.3254 30.473L36.2543 39.1743C34.0215 40.4634 31.2306 38.8521 31.2306 36.2739L31.2306 18.8713C31.2306 16.2931 34.0216 14.6817 36.2543 15.9708L51.3254 24.6721Z"
                  fill="white"/>
        </g>


        <g id="player-arrow-prev">
            <path fill-rule="evenodd" clip-rule="evenodd"
                  d="M25.4397 30.4726C23.2126 29.1835 23.2126 25.9608 25.4397 24.6717L47.989 11.6197C50.2161 10.3307 53 11.942 53 14.5202L53 40.6241C53 43.2023 50.2161 44.8137 47.989 43.5246L25.4397 30.4726ZM1.67457 30.4725C-0.558189 29.1834 -0.558184 25.9607 1.67457 24.6716L16.7457 15.9703C18.9785 14.6812 21.7694 16.2926 21.7694 18.8708L21.7694 36.2734C21.7694 38.8516 18.9784 40.4629 16.7457 39.1738L1.67457 30.4725Z"
                  fill="white"/>
        </g>


        <g id="lesson-arrow-prev">
            <path d="M7.14758 4.26816H12.5001C13.5421 4.26816 14.3947 5.10346 14.3947 6.12437C14.3947 7.14529 13.5421 7.98059 12.5001 7.98059H7.14758V11.3032C7.14758 12.1385 6.12447 12.5469 5.53713 11.9529L0.269988 6.77405C-0.0899961 6.40281 -0.0899961 5.82738 0.269988 5.45614L5.53713 0.277308C6.12447 -0.316679 7.14758 0.110248 7.14758 0.926981V4.26816Z"
                  fill="white"/>
        </g>
        <g id="lesson-arrow-next">
            <path d="M7.85242 8.73184L2.49992 8.73184C1.45786 8.73184 0.605268 7.89654 0.605268 6.87562C0.605268 5.85471 1.45786 5.01941 2.49992 5.01941L7.85242 5.01941L7.85242 1.6968C7.85242 0.861501 8.87553 0.453133 9.46287 1.04712L14.73 6.22595C15.09 6.59719 15.09 7.17262 14.73 7.54386L9.46287 12.7227C8.87553 13.3167 7.85242 12.8898 7.85242 12.073L7.85242 8.73184Z"
                  fill="white"/>
        </g>
        <g id="lesson-arrow-list">

            <circle cx="1.5" cy="1.84863" r="1.5" fill="white"/>
            <circle cx="1.5" cy="7.84863" r="1.5" fill="white"/>
            <circle cx="1.5" cy="13.8486" r="1.5" fill="white"/>
            <rect x="5" y="0.348633" width="13" height="3" rx="1.5" fill="white"/>
            <rect x="5" y="6.34863" width="13" height="3" rx="1.5" fill="white"/>
            <rect x="5" y="12.3486" width="13" height="3" rx="1.5" fill="white"/>
        </g>

        <g id="lesson-arrow-list-close">
            <rect x="3.05078" y="0.221924" width="18" height="4" rx="2" transform="rotate(45 3.05078 0.221924)" fill="#2A2A2A"/>
            <rect x="15.7773" y="3.05035" width="18" height="4" rx="2" transform="rotate(135 15.7773 3.05035)" fill="#2A2A2A"/>
        </g>


    </defs>
</svg>