<svg xmlns="http://www.w3.org/2000/svg" version="1.1">
    <defs>
        <g id="icon_partners">
            <path fill-rule="evenodd" clip-rule="evenodd" d="M16.7587 7.93387C17.6673 10.1419 18.5474 12.2792 19.44 14.4472C19.5262 14.6563 19.7725 14.7583 19.9812 14.6724L21.8255 13.9129C22.0345 13.8272 22.1374 13.5815 22.0512 13.3725L19.3696 6.85827C19.2836 6.64864 19.0371 6.54718 18.828 6.63314L16.9838 7.39231C16.7745 7.47854 16.6727 7.72453 16.7587 7.93387ZM6.05613 7.93387C6.14209 7.72453 6.04033 7.47854 5.83098 7.39231L3.98678 6.63314C3.7777 6.54718 3.5312 6.64864 3.44524 6.85827L0.763924 13.3716C0.678244 13.5807 0.779175 13.8267 0.988523 13.9126L2.83356 14.6724C3.04235 14.7583 3.28886 14.656 3.37481 14.4472C4.26655 12.2808 5.16938 10.0906 6.05613 7.93387ZM11.6345 9.00027C10.537 7.84013 9.73345 8.01094 8.2267 8.33231C7.71955 8.44072 7.13753 8.56496 6.43961 8.66672L4.67028 12.9651C5.21098 13.6769 5.65768 14.3299 6.06112 14.92C6.80951 16.0144 7.40788 16.8887 8.14573 17.4635C8.49372 17.735 8.91325 17.9337 9.37659 18.0702L8.41913 16.8105C8.31349 16.6713 8.34066 16.4727 8.47986 16.3671C8.61905 16.2615 8.81759 16.2887 8.92323 16.4279L10.3149 18.2587C10.641 18.2978 10.9782 18.3139 11.3195 18.31L11.4337 18.3078L9.60368 15.9004C9.49804 15.7612 9.52521 15.5627 9.66441 15.4571C9.8036 15.3515 10.0021 15.3786 10.1078 15.5178L12.191 18.2582C12.5695 18.2183 12.9452 18.1567 13.3087 18.0768L10.8847 14.9186C10.7785 14.7794 10.8051 14.5803 10.9443 14.4741C11.0835 14.3679 11.2826 14.3945 11.3888 14.5337L13.977 17.9057C14.3508 17.7959 14.704 17.6676 15.0248 17.5253L10.9904 12.2192C10.7821 12.2531 10.572 12.2922 10.3632 12.3199C10.1264 12.7724 9.73761 13.1163 9.32085 13.3511C8.85003 13.6145 7.61779 14.0457 7.25954 13.408C7.01165 12.9674 7.79608 11.6755 8.03537 11.2105C8.84365 9.63805 9.94862 9.19853 11.6345 9.00027ZM15.596 17.2308C16.7481 16.4861 17.6304 14.1702 18.137 12.9468L16.5995 9.21186C15.4061 9.36298 14.3746 9.43005 13.4743 9.48828C10.9518 9.65188 9.49942 9.74617 8.59937 11.5C8.41276 11.8643 7.87261 12.794 7.81382 13.0813C8.44936 13.3056 9.61117 12.506 9.85823 11.9054C9.9037 11.7945 10.0052 11.7232 10.1167 11.7107C10.4461 11.6738 10.7663 11.6031 11.0968 11.5665C11.2213 11.553 11.3287 11.6092 11.3985 11.7107C12.7015 13.4113 13.8375 13.1035 15.3872 11.9281C15.5264 11.8224 15.725 11.8497 15.8306 11.9889C15.9363 12.1281 15.9091 12.3266 15.7699 12.4322C14.8876 13.1016 14.0801 13.5289 13.2777 13.5358C13.0969 13.5372 12.918 13.518 12.7406 13.4759L15.596 17.2308Z" fill="white"/>
        </g>
        <g id="icon_menu">
            <circle cx="20" cy="20.2598" r="20" fill="#F8F8F8"/>
            <rect x="10.5" y="12.5056" width="19" height="2" rx="1" fill="#00B300"/>
            <rect x="15.1465" y="18.7598" width="14.3535" height="2" rx="1" fill="#00B300"/>
            <rect x="10.5" y="25.0139" width="19" height="2" rx="1" fill="#00B300"/>
        </g>
        <g id="icon_phone">
            <path fill-rule="evenodd" clip-rule="evenodd" d="M9.12931 9.87398C12.2873 13.0311 13.0038 9.37866 15.0145 11.388C16.953 13.3259 18.0671 13.7142 15.6111 16.1696C15.3034 16.4168 13.3488 19.3913 6.4795 12.5239C-0.39065 5.65567 2.58211 3.69902 2.82941 3.39147C5.29141 0.9293 5.67299 2.04993 7.61149 3.98789C9.62222 5.99806 5.97129 6.71683 9.12931 9.87398Z"/>
        </g>
        <g id="icon_eye">
            <path d="M12 4.5C7 4.5 2.73 7.61 1 12C2.73 16.39 7 19.5 12 19.5C17 19.5 21.27 16.39 23 12C21.27 7.61 17 4.5 12 4.5ZM12 17C9.24 17 7 14.76 7 12C7 9.24 9.24 7 12 7C14.76 7 17 9.24 17 12C17 14.76 14.76 17 12 17ZM12 9C10.34 9 9 10.34 9 12C9 13.66 10.34 15 12 15C13.66 15 15 13.66 15 12C15 10.34 13.66 9 12 9Z"/>
        </g>
        <g id="icon_eye_closed">
            <path d="M12 6.50005C14.76 6.50005 17 8.74005 17 11.5001C17 12.0101 16.9 12.5001 16.76 12.9601L19.82 16.0201C21.21 14.7901 22.31 13.2501 23 11.4901C21.27 7.11005 17 4.00005 12 4.00005C10.73 4.00005 9.51 4.20005 8.36 4.57005L10.53 6.74005C11 6.60005 11.49 6.50005 12 6.50005ZM2.71 3.16005C2.32 3.55005 2.32 4.18005 2.71 4.57005L4.68 6.54005C3.06 7.83005 1.77 9.53005 1 11.5001C2.73 15.8901 7 19.0001 12 19.0001C13.52 19.0001 14.97 18.7001 16.31 18.1801L19.03 20.9001C19.42 21.2901 20.05 21.2901 20.44 20.9001C20.83 20.5101 20.83 19.8801 20.44 19.4901L4.13 3.16005C3.74 2.77005 3.1 2.77005 2.71 3.16005ZM12 16.5001C9.24 16.5001 7 14.2601 7 11.5001C7 10.7301 7.18 10.0001 7.49 9.36005L9.06 10.9301C9.03 11.1101 9 11.3001 9 11.5001C9 13.1601 10.34 14.5001 12 14.5001C12.2 14.5001 12.38 14.4701 12.57 14.4301L14.14 16.0001C13.49 16.3201 12.77 16.5001 12 16.5001ZM14.97 11.1701C14.82 9.77005 13.72 8.68005 12.33 8.53005L14.97 11.1701Z"/>
        </g>
        <g id="icon_start">
            <path d="M22.5669 5.46535C22.5034 5.43777 20.9546 4.76683 11.7851 0.793232C11.6027 0.714166 11.396 0.714166 11.2136 0.793232L0.431814 5.46535C-0.14672 5.71554 -0.141149 6.53675 0.431814 6.78433C2.52636 7.69184 5.95053 9.17582 11.2136 11.4564C11.3949 11.5351 11.6016 11.536 11.7851 11.4564C12.2849 11.2399 19.0947 8.28889 19.406 8.15407V15.8083C19.406 16.1955 19.7037 16.5285 20.0904 16.5465C20.5032 16.5657 20.8436 16.237 20.8436 15.8285V7.89337C20.8436 7.78043 20.7599 7.68506 20.6479 7.67064C19.2988 7.49678 12.9362 6.67557 11.4073 6.47839C10.965 6.42314 10.6895 5.97533 10.8057 5.57677C10.8969 5.24015 11.2165 5.02572 11.5402 5.04801C11.5725 5.04989 21.8158 6.37174 21.8084 6.3708C21.9998 6.39542 22.1571 6.51797 22.2327 6.68415C22.2855 6.80032 22.42 6.85356 22.5356 6.79938C22.729 6.70872 22.8967 6.5894 22.973 6.31936C23.0712 5.96945 22.8938 5.60668 22.5669 5.46535Z" fill="white"/>
            <path d="M10.6417 12.7754L4.62539 10.1684C4.47705 10.1041 4.31146 10.2129 4.31146 10.3745V12.9533C4.31146 15.3716 7.46874 17.2661 11.4993 17.2661C15.5299 17.2661 18.6872 15.3716 18.6872 12.9533V10.3745C18.6872 10.2129 18.5216 10.1042 18.3733 10.1684L12.3565 12.7754C11.8102 13.0129 11.1886 13.0127 10.6417 12.7754Z" fill="white"/>
        </g>
        <g id="flag_russia">
            <path d="M24 9.37934H0V4.55174C0 4.32322 0.185297 4.13792 0.413812 4.13792H23.5862C23.8147 4.13792 24 4.32322 24 4.55174L24 9.37934Z" fill="#F5F5F5"/>
            <path d="M23.5861 19.8621H0.413812C0.185297 19.8621 0 19.6768 0 19.4483V14.6208H24V19.4483C24 19.6769 23.8147 19.8621 23.5861 19.8621Z" fill="#FF4B55"/>
            <path d="M24 9.3792H0V14.6203H24V9.3792Z" fill="#41479B"/>
        </g>
        <g id="icon_courses">
            <path fill-rule="evenodd" clip-rule="evenodd" d="M12.9445 10.297H15.4817C15.8664 10.297 16.1686 9.97897 16.1686 9.59543C16.1686 9.20254 15.8664 8.89383 15.4817 8.89383H12.9445C12.5598 8.89383 12.2575 9.20254 12.2575 9.59543C12.2575 9.97897 12.5598 10.297 12.9445 10.297ZM18.4952 5.43355C19.0539 5.43355 19.4203 5.62999 19.7867 6.06031C20.153 6.49062 20.2172 7.10803 20.1347 7.66838L19.2646 13.805C19.0997 14.9847 18.1105 15.8537 16.9472 15.8537H6.95417C5.73595 15.8537 4.7284 14.9005 4.62765 13.6657L3.78497 3.46813L2.40188 3.22491C2.0355 3.15943 1.77904 2.79459 1.84315 2.42041C1.90727 2.0378 2.26449 1.78429 2.64003 1.84135L4.82458 2.17719C5.136 2.23425 5.36499 2.49524 5.39247 2.8133L5.5665 4.90875C5.59398 5.20903 5.83213 5.43355 6.12523 5.43355H18.4952ZM6.80742 17.3322C6.03801 17.3322 5.41517 17.9683 5.41517 18.7541C5.41517 19.5306 6.03801 20.1667 6.80742 20.1667C7.56766 20.1667 8.1905 19.5306 8.1905 18.7541C8.1905 17.9683 7.56766 17.3322 6.80742 17.3322ZM17.1119 17.3322C16.3425 17.3322 15.7196 17.9683 15.7196 18.7541C15.7196 19.5306 16.3425 20.1667 17.1119 20.1667C17.8721 20.1667 18.495 19.5306 18.495 18.7541C18.495 17.9683 17.8721 17.3322 17.1119 17.3322Z"/>
        </g>
        <g id="icon_my">
            <path d="M11 2.20001C12.706 2.20001 14.0938 3.62214 14.0938 5.32814C14.0938 7.03413 12.706 8.42189 11 8.42189C9.294 8.42189 7.90625 7.03413 7.90625 5.32814C7.90625 3.62214 9.294 2.20001 11 2.20001Z"/>
            <path d="M3.23126 11.5156C3.80082 11.5156 4.26251 11.9773 4.26251 12.5469V14.6094C4.26251 15.1789 3.80082 15.6406 3.23126 15.6406C2.6617 15.6406 2.20001 15.1789 2.20001 14.6094V12.5469C2.20001 11.9773 2.6617 11.5156 3.23126 11.5156Z"/>
            <path d="M18.7687 11.5156C19.3383 11.5156 19.8 11.9773 19.8 12.5469V14.6094C19.8 15.1789 19.3383 15.6406 18.7687 15.6406C18.1992 15.6406 17.7375 15.1789 17.7375 14.6094V12.5469C17.7375 11.9773 18.1992 11.5156 18.7687 11.5156Z"/>
            <path d="M18.2531 9.45312C18.5381 9.45312 18.7687 9.68375 18.7687 9.96875V10.4844C17.6312 10.4844 16.7062 11.4094 16.7062 12.5469V14.6094C16.7062 15.7469 17.6312 16.6719 18.7687 16.6719V17.1875C18.7687 17.4725 18.5381 17.7031 18.2531 17.7031C16.3006 17.7031 14.6371 18.1586 13.1029 18.9052C12.3931 19.2506 11.5156 18.7663 11.5156 17.9769V11.7029C11.5156 11.3446 11.706 11.0107 12.0246 10.8468C13.8707 9.89701 15.865 9.45312 18.2531 9.45312Z"/>
            <path d="M3.23125 10.4844V9.96875C3.23125 9.68375 3.46187 9.45312 3.74688 9.45312C6.135 9.45312 8.12929 9.89701 9.97538 10.8468C10.294 11.0107 10.4844 11.3446 10.4844 11.7029V17.9769C10.4844 18.7663 9.60688 19.2506 8.89709 18.9052C7.36288 18.1586 5.69939 17.7031 3.74688 17.7031C3.46187 17.7031 3.23125 17.4725 3.23125 17.1875V16.6719C4.36875 16.6719 5.29375 15.7469 5.29375 14.6094V12.5469C5.29375 11.4094 4.36875 10.4844 3.23125 10.4844Z"/>
        </g>
        <g id="icon_date">
            <circle cx="10.7976" cy="11.0716" r="10.2976" fill="#171C1E" stroke="white"/>
            <path fill-rule="evenodd" clip-rule="evenodd" d="M13.1325 6.18545L13.133 6.58222C14.591 6.69649 15.5542 7.69001 15.5557 9.21362L15.5615 13.6733C15.5636 15.3345 14.52 16.3566 12.8472 16.3592L8.76104 16.3645C7.09869 16.3666 6.04202 15.3202 6.03993 13.6543L6.03418 9.24694C6.03209 7.71329 6.96125 6.72242 8.41927 6.58857L8.41875 6.1918C8.41823 5.95903 8.59068 5.78392 8.82062 5.78392C9.05056 5.78339 9.22301 5.95797 9.22353 6.19074L9.22406 6.56106L12.3282 6.55683L12.3277 6.18651C12.3272 5.95374 12.4996 5.77916 12.7296 5.77863C12.9543 5.7781 13.132 5.95268 13.1325 6.18545ZM6.83958 9.41027L14.7516 9.39969V9.21453C14.7291 8.07711 14.1584 7.48037 13.1341 7.39149L13.1347 7.79885C13.1347 8.02633 12.9575 8.20673 12.7328 8.20673C12.5029 8.20726 12.3299 8.02739 12.3299 7.7999L12.3294 7.37139L9.22519 7.37562L9.22572 7.80361C9.22572 8.03162 9.05378 8.21149 8.82385 8.21149C8.59391 8.21202 8.42093 8.03268 8.42093 7.80466L8.42041 7.39731C7.40136 7.49941 6.83749 8.09828 6.83906 9.24574L6.83958 9.41027ZM12.5128 11.8146V11.8204C12.5181 12.0638 12.7166 12.2484 12.9576 12.2431C13.1927 12.2373 13.3803 12.0358 13.3751 11.7924C13.3641 11.5596 13.1755 11.3697 12.9408 11.3702C12.7004 11.3755 12.5123 11.5713 12.5128 11.8146ZM12.9446 14.1902C12.7042 14.1849 12.5104 13.9844 12.5098 13.741C12.5046 13.4977 12.6974 13.2961 12.9378 13.2903H12.9431C13.1887 13.2903 13.3878 13.4908 13.3878 13.7394C13.3883 13.9881 13.1897 14.1896 12.9446 14.1902ZM10.3599 11.8233C10.3703 12.0666 10.5694 12.2565 10.8098 12.246C11.045 12.2348 11.2326 12.0338 11.2222 11.7905C11.2164 11.5524 11.0231 11.3672 10.7879 11.3678C10.5475 11.3783 10.3594 11.5799 10.3599 11.8233ZM10.8117 14.1663C10.5713 14.1769 10.3727 13.987 10.3617 13.7436C10.3617 13.5003 10.5494 13.2992 10.7897 13.2881C11.0249 13.2876 11.2188 13.4727 11.224 13.7103C11.235 13.9542 11.0469 14.1552 10.8117 14.1663ZM8.20694 11.8416C8.21739 12.0849 8.4165 12.2754 8.65689 12.2643C8.89205 12.2537 9.07966 12.0521 9.06869 11.8088C9.06346 11.5707 8.87011 11.3855 8.63442 11.3861C8.39403 11.3966 8.20642 11.5982 8.20694 11.8416ZM8.65856 14.1688C8.41817 14.1799 8.21958 13.9894 8.20861 13.7461C8.20809 13.5027 8.39622 13.3012 8.63661 13.2906C8.87177 13.2901 9.06565 13.4752 9.07088 13.7133C9.08185 13.9566 8.89424 14.1582 8.65856 14.1688Z" fill="white"/>
        </g>
        <g id="icon_search">
            <path d="M4.5 9.50244C4.5 6.45341 6.9426 4 9.93323 4C11.3707 4 12.7516 4.57709 13.7713 5.60784C14.7915 6.63894 15.3665 8.03967 15.3665 9.50244C15.3665 12.5515 12.9239 15.0049 9.93323 15.0049C6.9426 15.0049 4.5 12.5515 4.5 9.50244Z" stroke="#39D7D7" stroke-width="2"/>
            <path d="M18.176 16.2873L16.26 14.7407C15.9701 14.4528 15.5054 14.4528 15.2155 14.7407C15.0652 14.8921 14.9807 15.0978 14.9807 15.3123C14.9807 15.5268 15.0652 15.7324 15.2155 15.8838L16.8055 17.7061C17.1932 18.0979 17.8216 18.0979 18.2093 17.7061C18.5969 17.3143 18.5969 16.6791 18.2093 16.2873H18.176Z" fill="#39D7D7"/>
        </g>
        <g id="icon_timer">
            <path d="M8.125 1.25H11.875C12.0408 1.25 12.1997 1.18415 12.3169 1.06694C12.4342 0.949732 12.5 0.79076 12.5 0.625C12.5 0.45924 12.4342 0.300269 12.3169 0.183058C12.1997 0.065848 12.0408 0 11.875 0L8.125 0C7.95924 0 7.80027 0.065848 7.68306 0.183058C7.56585 0.300269 7.5 0.45924 7.5 0.625C7.5 0.79076 7.56585 0.949732 7.68306 1.06694C7.80027 1.18415 7.95924 1.25 8.125 1.25Z" fill="#39D7D7"/>
            <path d="M10 2.5C8.51664 2.5 7.0666 2.93987 5.83323 3.76398C4.59986 4.58809 3.63856 5.75943 3.07091 7.12987C2.50325 8.50032 2.35472 10.0083 2.64411 11.4632C2.9335 12.918 3.64781 14.2544 4.6967 15.3033C5.7456 16.3522 7.08197 17.0665 8.53683 17.3559C9.99168 17.6453 11.4997 17.4968 12.8701 16.9291C14.2406 16.3614 15.4119 15.4001 16.236 14.1668C17.0601 12.9334 17.5 11.4834 17.5 10C17.4978 8.01157 16.7069 6.10522 15.3008 4.69918C13.8948 3.29315 11.9884 2.50225 10 2.5ZM13.5355 7.34833L10.442 10.4419C10.3839 10.5 10.315 10.546 10.2392 10.5774C10.1634 10.6088 10.0821 10.625 10 10.625C9.91795 10.625 9.83668 10.6089 9.76085 10.5774C9.68501 10.546 9.61611 10.5 9.55807 10.442C9.50003 10.3839 9.45399 10.315 9.42258 10.2392C9.39116 10.1634 9.37499 10.0821 9.37499 10C9.37499 9.91795 9.39115 9.83667 9.42255 9.76084C9.45396 9.68501 9.5 9.61611 9.55803 9.55807L12.6516 6.46446C12.7097 6.40642 12.7786 6.36039 12.8544 6.32897C12.9302 6.29756 13.0115 6.2814 13.0936 6.28139C13.1757 6.28139 13.2569 6.29756 13.3328 6.32896C13.4086 6.36037 13.4775 6.40641 13.5355 6.46444C13.5936 6.52248 13.6396 6.59138 13.671 6.6672C13.7024 6.74303 13.7186 6.8243 13.7186 6.90638C13.7186 6.98846 13.7024 7.06973 13.671 7.14556C13.6396 7.22139 13.5936 7.29029 13.5355 7.34833H13.5355Z" fill="#39D7D7"/>
        </g>
        <g id="icon_back">
            <path d="M8.29408 11.3413H19.3041C19.8541 11.3413 20.3041 11.7913 20.3041 12.3413C20.3041 12.8913 19.8541 13.3413 19.3041 13.3413H8.29408V15.1313C8.29408 15.5813 7.75408 15.8013 7.44408 15.4813L4.66408 12.6913C4.47408 12.4913 4.47408 12.1813 4.66408 11.9813L7.44408 9.1913C7.75408 8.8713 8.29408 9.10129 8.29408 9.54129V11.3413Z" fill="#195AFF"/>
        </g>
        <g id="icon_book">
            <g clip-path="url(#clip0)">
                <path d="M2.92646 1.53413C2.92611 1.53413 2.92571 1.53413 2.92536 1.53413C2.80241 1.53413 2.68676 1.58206 2.59944 1.66917C2.51115 1.75724 2.46252 1.8745 2.46252 1.99933V8.97493C2.46252 9.23073 2.67144 9.43934 2.92829 9.44C4.01111 9.44258 5.82525 9.66827 7.07676 10.9779V3.67778C7.07676 3.59107 7.05461 3.50962 7.01281 3.44221C5.98563 1.78801 4.01172 1.53667 2.92646 1.53413Z"/>
                <path d="M12.4133 8.97493V1.99929C12.4133 1.87445 12.3646 1.75719 12.2763 1.66912C12.189 1.58202 12.0733 1.53409 11.9505 1.53409C11.9501 1.53409 11.9497 1.53409 11.9493 1.53409C10.8641 1.53667 8.8902 1.788 7.86298 3.44221C7.82118 3.50961 7.79907 3.59107 7.79907 3.67778V10.9779C9.05058 9.66822 10.8647 9.44254 11.9475 9.43995C12.2043 9.4393 12.4133 9.23068 12.4133 8.97493Z"/>
                <path d="M13.4728 3.14281H13.1355V8.97493C13.1355 9.62804 12.6033 10.1606 11.9492 10.1622C11.0308 10.1644 9.51637 10.344 8.44385 11.3591C10.2988 10.9049 12.2542 11.2002 13.3686 11.4541C13.5078 11.4858 13.6516 11.4531 13.7631 11.3642C13.8741 11.2756 13.9379 11.1431 13.9379 11.0009V3.60792C13.9379 3.35146 13.7292 3.14281 13.4728 3.14281Z"/>
                <path d="M1.74028 8.97493V3.14281H1.40298C1.14657 3.14281 0.937866 3.35146 0.937866 3.60792V11.0007C0.937866 11.143 1.0016 11.2755 1.11269 11.3641C1.22409 11.4529 1.36774 11.4858 1.50711 11.454C2.62153 11.2 4.577 10.9048 6.43185 11.359C5.35937 10.3439 3.84497 10.1644 2.92652 10.1622C2.27245 10.1606 1.74028 9.62804 1.74028 8.97493Z"/>
            </g>
            <defs>
                <clipPath id="clip0">
                    <rect width="13" height="13" fill="white" transform="translate(0.937866)"/>
                </clipPath>
            </defs>
        </g>
        <g id="icon_play">
            <circle cx="21.4379" cy="16.5" r="9.5"/>
            <path d="M24.6417 16.2402C24.8417 16.3557 24.8417 16.6443 24.6417 16.7598L20.0609 19.4045C19.8609 19.52 19.6109 19.3757 19.6109 19.1447L19.6109 13.8553C19.6109 13.6244 19.8609 13.48 20.0609 13.5955L24.6417 16.2402Z" fill="white"/>
        </g>
        <g id="icon_replay">
            <circle cx="21.4379" cy="16.5" r="9.5"/>
            <path d="M24.6417 16.2402C24.8417 16.3557 24.8417 16.6443 24.6417 16.7598L20.0609 19.4045C19.8609 19.52 19.6109 19.3757 19.6109 19.1447L19.6109 13.8553C19.6109 13.6244 19.8609 13.48 20.0609 13.5955L24.6417 16.2402Z" fill="black"/>
        </g>
        <g id="icon_pause">
            <circle cx="12.9379" cy="12" r="12" fill="#FCC946"/>
            <path d="M10.9379 10V14.5" stroke="black" stroke-width="2" stroke-linecap="round" stroke-linejoin="round"/>
            <path d="M15.9379 10V14.5" stroke="black" stroke-width="2" stroke-linecap="round" stroke-linejoin="round"/>
        </g>
        <g id="icon_done">
            <path d="M24.9379 12C24.9379 18.6274 19.5653 24 12.9379 24C6.31045 24 0.937866 18.6274 0.937866 12C0.937866 5.37258 6.31045 0 12.9379 0C19.5653 0 24.9379 5.37258 24.9379 12Z" fill="#68CD44"/>
            <path d="M8.93787 11.5L12.7273 15L17.9379 9" stroke="black" stroke-width="2" stroke-linecap="round" stroke-linejoin="round"/>
        </g>
        <g id="icon_process">
            <circle cx="17.5" cy="17" r="17" fill="#DEDEDE"/>
            <path d="M11.834 16.2917L17.2024 21.25L24.584 12.75" stroke="#9C9C9C" stroke-width="2.16667" stroke-linecap="round" stroke-linejoin="round"/>
        </g>
        <g id="icon_arrow">
            <ellipse rx="16" ry="15.6753" transform="matrix(-1 0 0 1 16.5 15.9954)" fill="#D7E5FF"/>
            <path d="M16.5499 14.151H11.1974C10.1553 14.151 9.30273 14.9863 9.30273 16.0072C9.30273 17.0281 10.1553 17.8634 11.1974 17.8634H16.5499V21.186C16.5499 22.0213 17.573 22.4297 18.1603 21.8357L23.4275 16.6569C23.7875 16.2856 23.7875 15.7102 23.4275 15.339L18.1603 10.1601C17.573 9.56613 16.5499 9.99306 16.5499 10.8098V14.151Z" fill="#363636"/>
        </g>
        <g id="icon_dropdown">
            <path d="M15.2895 11.7098L12.6995 14.2998C12.3095 14.6898 11.6795 14.6898 11.2895 14.2998L8.69946 11.7098C8.06946 11.0798 8.51946 9.99978 9.40946 9.99978L14.5895 9.99978C15.4795 9.99978 15.9195 11.0798 15.2895 11.7098Z"/>
        </g>
        <g id="icon_arrow-down">
            <path d="M26.5352 12.4141C26.793 12.1445 26.9336 11.8164 26.9336 11.4414C26.9336 10.6563 26.3242 10.0469 25.5508 10.0469C25.1641 10.0469 24.8125 10.1992 24.543 10.4688L16.5273 18.6719L8.53516 10.4688C8.26562 10.1992 7.90234 10.0469 7.52734 10.0469C6.75391 10.0469 6.14453 10.6562 6.14453 11.4414C6.14453 11.8164 6.28516 12.1445 6.54297 12.4023L15.4492 21.5195C15.7539 21.8477 16.1289 22.0117 16.5391 22.0117C16.9492 22.0117 17.3008 21.8477 17.6172 21.5312L26.5352 12.4141Z"/>
        </g>
        <g id="icon_lock">
            <path class="cls-1" d="M24.42,11.16A6.59,6.59,0,0,1,31,17.73V28a6.57,6.57,0,0,1-6.58,6.56H11.58A6.57,6.57,0,0,1,5,28V17.73a6.57,6.57,0,0,1,6.58-6.57Zm-7.86,11a1.38,1.38,0,0,1,2.75,0v1.37a2,2,0,0,1,0,.35,2.74,2.74,0,1,1-4.08,2.4,2.72,2.72,0,0,1,1.42-2.4,1.34,1.34,0,0,1-.05-.35Z"/>
            <path class="cls-2" d="M26.77,17H9.22V9.21a8.78,8.78,0,0,1,17.55,0ZM12.15,14.09h11.7V9.21a5.85,5.85,0,0,0-11.7,0Z"/>
        </g>
        <g id="icon_exit">
            <path fill-rule="evenodd" clip-rule="evenodd" d="M2.77008 2.26072C1.13814 2.68814 0 4.16274 0 5.84973V19.48C0 21.1365 1.09809 22.5923 2.69083 23.0474L10.853 25.3794C13.223 26.0566 15.5823 24.277 15.5823 21.8121V3.71203C15.5823 1.28124 13.2837 -0.492843 10.9322 0.12302L2.77008 2.26072ZM11.8722 10.7774C11.4624 10.7774 11.1302 11.1096 11.1302 11.5194V14.4874C11.1302 14.8972 11.4624 15.2294 11.8722 15.2294H12.6142C13.024 15.2294 13.3562 14.8972 13.3562 14.4874V11.5194C13.3562 11.1096 13.024 10.7774 12.6142 10.7774H11.8722Z"/>
            <path d="M22.2598 6.93555C22.2598 6.08917 21.7798 5.31602 21.0213 4.94054L19.5372 4.20595C18.0577 3.47357 16.3237 4.55005 16.3237 6.20095V18.9177C16.3237 20.6032 18.1243 21.6773 19.6074 20.8764L21.0914 20.075C21.8112 19.6863 22.2598 18.9343 22.2598 18.1163V6.93555Z"/>
        </g>
        <g id="icon_door">
            <path fill-rule="evenodd" clip-rule="evenodd" d="M4.83894 0.00469971H17.345C18.0062 0.00469971 18.554 0.552548 18.5351 1.21374V20.7096C18.5351 21.3708 18.1762 21.9186 17.515 21.9186C16.816 21.9186 16.4571 21.3708 16.4571 20.6907V18.6315C16.4571 18.5749 16.4193 18.5371 16.3626 18.556L4.76338 21.9186H4.74449C4.12107 21.8997 3.6299 21.4086 3.6299 20.7851L3.6299 10.4517H1.17403C1.17403 10.4517 0.13501 10.5272 0.13501 9.71492C0.13501 8.90259 1.17403 8.97815 1.17403 8.97815H3.6299L3.6299 10.3949H8.22049L5.5757 13.0397C5.29233 13.3231 5.29233 13.7954 5.5757 14.0787C5.85907 14.3621 6.33135 14.3621 6.61472 14.0787L9.88292 10.8105L9.90181 10.8294L10.4874 10.2438C10.733 9.9982 10.733 9.58259 10.4874 9.33701L9.90181 8.75138L9.88292 8.77027L6.61472 5.50207C6.33135 5.2187 5.85907 5.2187 5.5757 5.50207C5.29233 5.78544 5.29233 6.25772 5.5757 6.54109L7.99379 8.97807L3.6299 8.97815L3.6299 1.21374C3.6299 0.552548 4.17775 0.00469971 4.83894 0.00469971ZM13.9068 9.92264C13.9068 10.4894 14.2279 10.9617 14.6246 10.9617C15.0214 10.9617 15.3425 10.4894 15.3425 9.92264C15.3425 9.3559 15.0214 8.88361 14.6246 8.88361C14.2279 8.88361 13.9068 9.3559 13.9068 9.92264Z" fill="currentColor"/>
        </g>
        <g id="icon_mail">
            <path fill-rule="evenodd" clip-rule="evenodd" d="M13.4103 2.375C14.472 2.375 15.4932 2.79458 16.2445 3.54746C16.9966 4.29875 17.417 5.31208 17.417 6.37292V12.6271C17.417 14.8358 15.6199 16.625 13.4103 16.625H5.58945C3.37991 16.625 1.58362 14.8358 1.58362 12.6271V6.37292C1.58362 4.16417 3.37199 2.375 5.58945 2.375H13.4103ZM14.6699 7.55248L14.7332 7.48915C14.9224 7.25957 14.9224 6.92707 14.7245 6.69748C14.6144 6.57953 14.4632 6.50748 14.3057 6.49165C14.1394 6.48294 13.9811 6.53915 13.8616 6.64998L10.2919 9.49998C9.83278 9.88078 9.1749 9.88078 8.70861 9.49998L5.14611 6.64998C4.8999 6.4679 4.55948 6.49165 4.35444 6.7054C4.14069 6.91915 4.11694 7.25957 4.29823 7.49707L4.40194 7.59998L8.00403 10.4104C8.44736 10.7587 8.9849 10.9487 9.54778 10.9487C10.1091 10.9487 10.6561 10.7587 11.0987 10.4104L14.6699 7.55248Z"/>
        </g>
        <g id="icon_key">
            <path d="M21.8631 10.3895L19.6977 8.22412C19.6193 8.14567 19.5251 8.11428 19.4153 8.11428H10.9421C9.95351 6.3098 8.03919 5.08589 5.84242 5.08589C2.62573 5.07019 0.0209961 7.67493 0.0209961 10.8916C0.0209961 14.1083 2.62573 16.713 5.84242 16.713C8.00781 16.713 9.90644 15.5205 10.9107 13.7631H12.7622C13.0447 13.7631 13.5311 13.4022 13.8606 13.1198C14.096 12.9315 14.4255 12.9158 14.6609 13.1041L15.4454 13.7003C15.6023 13.7945 15.8063 13.7788 15.9319 13.6376L16.5438 13.0256C16.6223 12.9472 16.7164 12.9158 16.8263 12.9158H18.0188C18.1286 12.9158 18.2228 12.9629 18.3012 13.0256L18.7563 13.4807C18.9132 13.6376 19.1642 13.6376 19.3211 13.4807L21.8474 10.9544C22.02 10.7975 22.02 10.5464 21.8631 10.3895ZM4.55575 13.3394C3.20631 13.3394 2.10792 12.2411 2.10792 10.8916C2.10792 9.54218 3.20631 8.4438 4.55575 8.4438C5.90519 8.4438 7.00357 9.54218 7.00357 10.8916C7.00357 12.2411 5.90519 13.3394 4.55575 13.3394Z" fill="currentColor"/>
        </g>
        <g id="icon_age-limit">
            <circle cx="11.5" cy="11.5" r="10.5" stroke="#C4C4C4" stroke-width="2"/>
            <path fill-rule="evenodd" clip-rule="evenodd" d="M12.1968 11.7845C12.1968 14.644 11.3137 16.9427 8.5944 16.9427C5.87511 16.9427 4.97803 14.644 4.97803 11.7845C4.97803 8.92505 5.87511 6.6543 8.5944 6.6543C11.3137 6.6543 12.1968 8.92505 12.1968 11.7845ZM6.84228 11.7845C6.84228 13.7469 7.23476 15.2887 8.5944 15.2887C9.95405 15.2887 10.3465 13.7469 10.3465 11.7845C10.3465 9.85016 9.95405 8.32232 8.5944 8.32232C7.23476 8.32232 6.84228 9.85016 6.84228 11.7845ZM15.4891 12.2824H13.3887V11.3242H15.4891V9.03019H16.4861V11.3242H18.5768V12.2824H16.4861V14.5667H15.4891V12.2824Z" fill="#C9C9C9"/>
        </g>
    </defs>
</svg>